<svg width="22" height="22" viewBox="0 0 22 22" fill="none" xmlns="http://www.w3.org/2000/svg">
<g clip-path="url(#clip0_219_2225)">
<path d="M10.9769 20.5739C8.95704 20.5739 6.93712 20.575 4.9173 20.5735C2.88352 20.5721 1.42701 19.1112 1.42553 17.0693C1.42362 14.4613 1.42785 11.8533 1.42383 9.24534C1.42182 7.95828 1.93722 6.95554 2.99764 6.22903C4.97261 4.87597 6.9422 3.51503 8.914 2.15717C10.3329 1.18019 11.6776 1.18275 13.0947 2.16026C15.0545 3.51194 17.0124 4.86638 18.9784 6.2088C20.0528 6.94244 20.58 7.94965 20.5776 9.253C20.5729 11.8476 20.5774 14.4422 20.5758 17.0368C20.5745 19.1133 19.1305 20.5722 17.0763 20.5734C15.0432 20.5748 13.01 20.5738 10.9769 20.5738V20.5739Z" stroke="#464FEB" stroke-width="1.8" stroke-miterlimit="10"/>
<path opacity="0.5" d="M7.53125 16.7334H14.4701" stroke="#464FEB" stroke-width="1.8" stroke-miterlimit="10" stroke-linecap="round"/>
</g>
<defs>
<clipPath id="clip0_219_2225">
<rect width="22" height="22" fill="white"/>
</clipPath>
</defs>
</svg>
