<?xml version="1.0" encoding="utf-8"?>
<!-- Generator: Adobe Illustrator 27.2.0, SVG Export Plug-In . SVG Version: 6.00 Build 0)  -->
<svg version="1.1" id="Layer_1" xmlns="http://www.w3.org/2000/svg" xmlns:xlink="http://www.w3.org/1999/xlink" x="0px" y="0px"
	 viewBox="0 0 15.2 16.7" style="enable-background:new 0 0 15.2 16.7;" xml:space="preserve">
<style type="text/css">
	.st0{fill:none;stroke:#EF3D3D;stroke-width:1.6875;stroke-linecap:round;stroke-linejoin:round;}
</style>
<g>
	<path class="st0" d="M14.3,3.8c-2.5-0.2-5-0.4-7.5-0.4c-1.5,0-3,0.1-4.5,0.2L0.8,3.8"/>
	<path class="st0" d="M5,3.1l0.2-1c0.1-0.7,0.2-1.2,1.5-1.2h2c1.3,0,1.4,0.6,1.5,1.3l0.2,1"/>
	<path class="st0" d="M12.7,6.2l-0.5,7.6c-0.1,1.2-0.1,2.1-2.2,2.1H5.2c-2.1,0-2.2-0.9-2.2-2.1L2.5,6.2"/>
	<path class="st0" d="M6.3,11.7h2.5"/>
	<path class="st0" d="M5.7,8.7h3.8"/>
</g>
</svg>
