<?xml version="1.0" encoding="UTF-8"?>
<svg version="1.1" xmlns="http://www.w3.org/2000/svg" width="730" height="105">
<path d="M0 0 C4.16545464 4.269591 6 8.02388337 6 14 C2.43793278 14.14567407 -1.12336551 14.23419196 -4.6875 14.3125 C-5.69490234 14.35439453 -6.70230469 14.39628906 -7.74023438 14.43945312 C-15.3028277 14.56424839 -15.3028277 14.56424839 -19.01171875 11.5625 C-19.66785156 10.716875 -20.32398438 9.87125 -21 9 C-28.11883259 6.01009031 -36.44778758 5.79152603 -43.6875 8.5 C-44.780625 8.995 -45.87375 9.49 -47 10 C-46.67 11.65 -46.34 13.3 -46 15 C-39.42346669 16.62069354 -33.12061911 17.40734653 -26.375 17.875 C-0.86583749 19.9571618 -0.86583749 19.9571618 6 28 C8.81953063 32.48561691 8.61028709 37.87515326 8 43 C6.41412402 48.69108659 3.23268391 52.37191948 -1.5859375 55.68359375 C-16.40983192 63.76717372 -34.93749439 63.88524966 -51.0078125 59.9140625 C-58.58870582 57.59822825 -64.85977386 54.00649542 -69.8125 47.6875 C-71.3901368 44.11705882 -71.56898722 40.87911498 -72 37 C-68.22956968 36.85503492 -64.45985258 36.76604393 -60.6875 36.6875 C-59.61564453 36.64560547 -58.54378906 36.60371094 -57.43945312 36.56054688 C-56.41142578 36.54443359 -55.38339844 36.52832031 -54.32421875 36.51171875 C-53.37635498 36.48553467 -52.42849121 36.45935059 -51.4519043 36.43237305 C-49 37 -49 37 -47.31958008 39.42114258 C-46.88411865 40.27216553 -46.44865723 41.12318848 -46 42 C-40.0361561 46.28173409 -32.20439332 46.41419799 -25.10546875 45.71484375 C-20.72455052 44.95155053 -17.97814263 44.46339909 -15 41 C-15.69399772 38.98492468 -15.69399772 38.98492468 -17 37 C-18.91408975 36.13638678 -18.91408975 36.13638678 -21.3125 35.875 C-22.29089844 35.72546875 -23.26929688 35.5759375 -24.27734375 35.421875 C-28.05619509 34.99363162 -31.83383681 34.66956551 -35.62353516 34.35668945 C-60.52696054 32.2596752 -60.52696054 32.2596752 -68 24 C-71.53504443 18.93310299 -71.69312351 13.97452938 -71 8 C-69.21107756 2.52800196 -65.76934103 -0.9383073 -61 -4 C-42.7135191 -12.36029243 -16.38986691 -12.47398348 0 0 Z " fill="#2E3192" transform="translate(483,19)"/>
<path d="M0 0 C7.26 0 14.52 0 22 0 C22.33 7.92 22.66 15.84 23 24 C25.97 22.02 28.94 20.04 32 18 C36.54649049 16.00369834 40.83137603 15.61322873 45.75 15.625 C46.45229736 15.62661133 47.15459473 15.62822266 47.87817383 15.62988281 C55.89003319 15.81759607 63.29542314 18.13243523 69 24 C75.29017518 32.67363188 75.76504409 40.45332082 75 51 C73.40101691 57.75233222 69.44720436 62.79754465 64 67 C56.14142527 71.55763822 46.22109907 72.28581987 37.4296875 70.46875 C31.80979186 68.71610458 27.19047061 66.19047061 23 62 C22.67 64.31 22.34 66.62 22 69 C14.74 69 7.48 69 0 69 C0 46.23 0 23.46 0 0 Z M25.16796875 37.046875 C23.69728442 38.98941824 22.31417387 40.9490923 21 43 C23.86662384 49.09157567 26.97566624 52.00638856 33 55 C37.70522555 56.56840852 41.52648816 56.54895539 46.1875 54.8125 C49.92873324 52.40148302 52.46891858 50.43564925 53.453125 45.921875 C53.79733319 41.32200189 53.14555305 38.58507177 50.1875 35 C47.08976865 31.69575322 44.28613914 30.83794096 39.8125 30.6875 C33.78261592 30.7951765 29.23319925 32.50491171 25.16796875 37.046875 Z " fill="#2E3192" transform="translate(176,10)"/>
<path d="M0 0 C0.80448578 -0.0159874 1.60897156 -0.03197479 2.43783569 -0.04844666 C3.73631943 -0.05649071 3.73631943 -0.05649071 5.06103516 -0.06469727 C5.95496979 -0.07372574 6.84890442 -0.08275421 7.76992798 -0.09205627 C9.66120045 -0.10656328 11.55252316 -0.11544663 13.44384766 -0.11914062 C16.33273212 -0.13103203 19.2194769 -0.18020719 22.10791016 -0.23071289 C23.94644141 -0.24017788 25.78498577 -0.24741255 27.62353516 -0.25219727 C28.9159462 -0.28149574 28.9159462 -0.28149574 30.23446655 -0.31138611 C34.67060883 -0.27813254 36.41953419 -0.13253033 40.01489258 2.70800781 C41.8921073 5.19638697 42.57478111 6.4088274 42.91259766 9.43139648 C43.61890422 12.93019835 43.61890422 12.93019835 46.66259766 15.11889648 C47.75572266 15.51077148 48.84884766 15.90264648 49.97509766 16.30639648 C56.72439607 18.9303441 56.72439607 18.9303441 58.97509766 22.30639648 C59.47928 26.94487406 58.75464163 29.56470267 55.97509766 33.30639648 C52.76549718 34.91119672 49.45708201 34.777122 45.97509766 34.30639648 C41.82130822 31.72431116 40.95452103 27.82176632 39.68603516 23.32983398 C39.0715888 21.11440025 39.0715888 21.11440025 36.97509766 19.30639648 C33.92518337 19.08167987 30.96883618 18.97820437 27.91650391 18.97045898 C26.56636452 18.96047379 26.56636452 18.96047379 25.18894958 18.95028687 C23.28329516 18.94015167 21.37760518 18.93547011 19.47192383 18.93579102 C16.55246646 18.93141875 13.6345216 18.89511168 10.71533203 18.85717773 C8.86572784 18.85130963 7.01611645 18.8473402 5.16650391 18.84545898 C4.29143692 18.83108795 3.41636993 18.81671692 2.51478577 18.8019104 C-2.08997209 18.77772069 -2.08997209 18.77772069 -6.07446289 20.80004883 C-7.46418962 24.46481498 -7.45274514 28.00475806 -7.42333984 31.86889648 C-7.42621002 32.69719971 -7.4290802 33.52550293 -7.43203735 34.37890625 C-7.43407552 36.12720423 -7.4285629 37.87552515 -7.41601562 39.6237793 C-7.39995788 42.29715042 -7.41587206 44.96900979 -7.43505859 47.64233398 C-7.43307612 49.34285815 -7.42923235 51.04338137 -7.42333984 52.74389648 C-7.42941254 53.54190674 -7.43548523 54.33991699 -7.44174194 55.16210938 C-7.40030877 58.43758005 -7.2612317 60.86945897 -5.6875 63.77905273 C-2.1423272 67.03582235 2.22345516 66.4833359 6.74853516 66.50952148 C7.50929352 66.51522156 8.27005188 66.52092163 9.05386353 66.52679443 C10.66268528 66.53623396 12.27152627 66.54277426 13.88037109 66.54663086 C16.33416681 66.55633349 18.78712355 66.58736429 21.24072266 66.61889648 C22.80582186 66.62542733 24.37092704 66.63067748 25.93603516 66.63452148 C26.66639984 66.64686829 27.39676453 66.65921509 28.14926147 66.67193604 C32.60014278 66.65259595 35.44534719 66.06820977 38.97509766 63.30639648 C40.05721089 61.20655665 40.05721089 61.20655665 40.53759766 58.86889648 C41.67383294 55.03566317 42.4314466 52.5092066 45.97509766 50.30639648 C48.75664269 49.76155777 51.197767 49.72469684 53.97509766 50.30639648 C56.40629388 52.17654743 57.61578938 53.58777993 58.97509766 56.30639648 C59.36599597 59.82448132 59.22271928 61.82240876 57.60009766 64.99389648 C54.77785636 67.48015667 53.48170937 67.76962879 49.91259766 68.55639648 C47.2514603 69.14276907 47.2514603 69.14276907 44.97509766 70.30639648 C43.70824507 72.53640411 43.2052716 74.43549318 42.76806641 76.95483398 C41.57251997 80.50024755 39.91113913 81.98651453 36.97509766 84.30639648 C33.87906692 85.03679353 30.86390524 85.00797026 27.69384766 84.97045898 C26.80274292 84.97524261 25.91163818 84.98002625 24.99353027 84.98495483 C23.11415842 84.98834921 21.23472715 84.97917911 19.35546875 84.95825195 C16.48384567 84.93147805 13.61613086 84.9580136 10.74462891 84.98999023 C8.91519322 84.98668605 7.08575996 84.98027964 5.25634766 84.97045898 C4.4010144 84.98058014 3.54568115 84.99070129 2.66442871 85.00112915 C-1.74013083 84.91482255 -3.49198585 84.72973133 -7.05371094 81.90039062 C-8.91806049 79.44699528 -9.6991243 78.10674581 -10.14990234 75.11889648 C-10.61688048 71.08232836 -10.61688048 71.08232836 -14.02490234 69.30639648 C-16.29156241 68.59601208 -18.57079828 67.98188705 -20.86865234 67.38061523 C-23.91043475 65.86523451 -24.58359902 64.38770757 -26.02490234 61.30639648 C-26.31279774 58.35718881 -26.44599077 55.62699362 -26.42333984 52.68139648 C-26.42621002 51.85687988 -26.4290802 51.03236328 -26.43203735 50.18286133 C-26.43407306 48.44473583 -26.42857774 46.70658716 -26.41601562 44.96850586 C-26.39995434 42.3149877 -26.41588043 39.66299253 -26.43505859 37.00952148 C-26.43307607 35.3168098 -26.42923222 33.62409907 -26.42333984 31.93139648 C-26.42941254 31.14168457 -26.43548523 30.35197266 -26.44174194 29.53833008 C-26.38368988 24.96934195 -25.91735455 21.9117403 -23.02490234 18.30639648 C-20.64990234 17.30249023 -20.64990234 17.30249023 -18.02490234 16.74389648 C-15.00890924 16.09312416 -13.45464939 15.75665419 -11.30615234 13.50561523 C-9.58930993 10.55871804 -8.78034975 7.59674968 -7.86865234 4.32983398 C-6.30785014 0.58679906 -3.69298034 0.05560655 0 0 Z " fill="#0D7AFF" transform="translate(26.02490234375,7.693603515625)"/>
<path d="M0 0 C7.92 0 15.84 0 24 0 C29.33333333 10.66666667 34.66666667 21.33333333 40 32 C42.34045821 29.07004235 44.02214952 26.13836401 45.62890625 22.75390625 C46.10650391 21.75166016 46.58410156 20.74941406 47.07617188 19.71679688 C47.56666016 18.67587891 48.05714844 17.63496094 48.5625 16.5625 C49.3040332 15.00692383 49.3040332 15.00692383 50.06054688 13.41992188 C52.16946616 8.97663727 54.17182471 4.57043823 56 0 C63.92 0 71.84 0 80 0 C78.67415848 3.97752457 77.66783933 6.89535756 75.70703125 10.4140625 C75.24893066 11.24413818 74.79083008 12.07421387 74.31884766 12.92944336 C73.82175293 13.81897705 73.3246582 14.70851074 72.8125 15.625 C69.17341188 22.19372874 65.57241266 28.77695656 62.08203125 35.42578125 C61.41768828 36.68610181 60.75321922 37.94635591 60.08862305 39.20654297 C59.11388173 41.05512705 58.14192899 42.90487672 57.17935181 44.75982666 C51.42008563 55.85100169 46.89447169 63.33205463 35 68 C31.9375 68.8125 31.9375 68.8125 29 69 C28.35933594 69.05027344 27.71867188 69.10054688 27.05859375 69.15234375 C19.2370219 69.50214571 9.10639277 68.21196634 3 63 C2.51171875 59.64453125 2.51171875 59.64453125 2.6875 55.8125 C2.75517578 53.90404297 2.75517578 53.90404297 2.82421875 51.95703125 C2.88222656 50.98121094 2.94023437 50.00539062 3 49 C5.88181945 49.9382668 8.70087974 50.86605849 11.46875 52.10546875 C14.57915736 53.20467135 17.20575597 53.30095475 20.5 53.3125 C21.6034375 53.32925781 22.706875 53.34601563 23.84375 53.36328125 C27.33430052 52.96152234 29.20031378 52.08454898 32 50 C32.495 49.01 32.495 49.01 33 48 C30.36 48 27.72 48 25 48 C22.17533146 42.82978586 19.35343196 37.65807693 16.53515625 32.484375 C14.13288699 28.0744902 11.72278741 23.6689917 9.30859375 19.265625 C8.12224175 17.09383416 6.93603989 14.9219613 5.75 12.75 C5.17741455 11.70908203 4.6048291 10.66816406 4.01489258 9.59570312 C3.22634888 8.1484082 3.22634888 8.1484082 2.421875 6.671875 C1.95362305 5.8169043 1.48537109 4.96193359 1.00292969 4.08105469 C0 2 0 2 0 0 Z " fill="#2E3192" transform="translate(492,27)"/>
<path d="M0 0 C7.92 0 15.84 0 24 0 C29.33333333 10.66666667 34.66666667 21.33333333 40 32 C42.34045821 29.07004235 44.02214952 26.13836401 45.62890625 22.75390625 C46.10650391 21.75166016 46.58410156 20.74941406 47.07617188 19.71679688 C47.56666016 18.67587891 48.05714844 17.63496094 48.5625 16.5625 C49.3040332 15.00692383 49.3040332 15.00692383 50.06054688 13.41992188 C52.16946616 8.97663727 54.17182471 4.57043823 56 0 C63.92 0 71.84 0 80 0 C78.67415848 3.97752457 77.66783933 6.89535756 75.70703125 10.4140625 C75.24893066 11.24413818 74.79083008 12.07421387 74.31884766 12.92944336 C73.82175293 13.81897705 73.3246582 14.70851074 72.8125 15.625 C69.17341188 22.19372874 65.57241266 28.77695656 62.08203125 35.42578125 C61.41768828 36.68610181 60.75321922 37.94635591 60.08862305 39.20654297 C59.11388173 41.05512705 58.14192899 42.90487672 57.17935181 44.75982666 C51.42008563 55.85100169 46.89447169 63.33205463 35 68 C31.9375 68.8125 31.9375 68.8125 29 69 C28.35933594 69.05027344 27.71867187 69.10054688 27.05859375 69.15234375 C19.2370219 69.50214571 9.10639277 68.21196634 3 63 C2.51171875 59.64453125 2.51171875 59.64453125 2.6875 55.8125 C2.75517578 53.90404297 2.75517578 53.90404297 2.82421875 51.95703125 C2.88222656 50.98121094 2.94023438 50.00539062 3 49 C5.88181945 49.9382668 8.70087974 50.86605849 11.46875 52.10546875 C14.57915736 53.20467135 17.20575597 53.30095475 20.5 53.3125 C21.6034375 53.32925781 22.706875 53.34601563 23.84375 53.36328125 C27.33430052 52.96152234 29.20031378 52.08454898 32 50 C32.495 49.01 32.495 49.01 33 48 C30.36 48 27.72 48 25 48 C22.17533146 42.82978586 19.35343196 37.65807693 16.53515625 32.484375 C14.13288699 28.0744902 11.72278741 23.6689917 9.30859375 19.265625 C8.12224175 17.09383416 6.93603989 14.9219613 5.75 12.75 C5.17741455 11.70908203 4.6048291 10.66816406 4.01489258 9.59570312 C3.22634888 8.1484082 3.22634888 8.1484082 2.421875 6.671875 C1.95362305 5.8169043 1.48537109 4.96193359 1.00292969 4.08105469 C0 2 0 2 0 0 Z " fill="#2E3192" transform="translate(91,27)"/>
<path d="M0 0 C7.29863957 5.0061976 11.91343265 11.30596937 14 20 C14 22.97 14 25.94 14 29 C-0.52 29.33 -15.04 29.66 -30 30 C-20.93427696 36.04381536 -12.65613696 35.92366351 -2 35 C1.42215425 34.19787787 4.50325222 33.203215 7.75 31.875 C10 31 10 31 13 31 C13 35.29 13 39.58 13 44 C-2.54219474 50.8674814 -18.6572612 53.93300836 -35.3515625 49.0390625 C-43.45745747 45.85887362 -49.44250237 40.501285 -54.13671875 33.2421875 C-56.34857138 27.49737568 -55.84059567 19.4262254 -54.3828125 13.484375 C-51.17346161 6.27043583 -44.89684509 1.55541731 -37.75 -1.375 C-26.09176811 -5.64473461 -11.04071203 -6.2878427 0 0 Z M-31 14 C-31.33 14.99 -31.66 15.98 -32 17 C-23.75 17 -15.5 17 -7 17 C-9.15453119 12.69093762 -9.69223117 11.79490368 -14 10 C-20.7966047 9.04386747 -25.49315181 9.89915561 -31 14 Z " fill="#2E3192" transform="translate(312,30)"/>
<path d="M0 0 C4.6979159 4.11944119 7.34199102 7.95355504 9 14 C9.16237778 16.78486623 9.23437565 19.46222484 9.1953125 22.2421875 C9.1924826 23.01055939 9.18965271 23.77893127 9.18673706 24.57058716 C9.17561311 27.00555521 9.1505236 29.44014462 9.125 31.875 C9.11496011 33.53384882 9.10583603 35.19270346 9.09765625 36.8515625 C9.07740755 40.90130209 9.03824546 44.95023118 9 49 C1.74 49 -5.52 49 -13 49 C-13.04898438 46.88078125 -13.09796875 44.7615625 -13.1484375 42.578125 C-13.20249024 40.51946114 -13.2597807 38.460911 -13.31738281 36.40234375 C-13.35560024 34.97469602 -13.39046572 33.54695437 -13.421875 32.11914062 C-13.46768401 30.06346132 -13.5256498 28.00842446 -13.5859375 25.953125 C-13.6173584 24.71723633 -13.6487793 23.48134766 -13.68115234 22.20800781 C-13.97921653 19.20910779 -14.35414826 17.48521765 -16 15 C-20.273215 12.10524145 -25.04001592 12.4927289 -30 13 C-33.58857888 14.37434936 -34.6513863 15.40808687 -36.59692383 18.71142578 C-38.0937478 22.21972904 -38.42139178 24.69845475 -38.51171875 28.4921875 C-38.54716797 29.69101562 -38.58261719 30.88984375 -38.61914062 32.125 C-38.64169922 33.3625 -38.66425781 34.6 -38.6875 35.875 C-38.72166016 37.13570312 -38.75582031 38.39640625 -38.79101562 39.6953125 C-38.87324586 42.79656722 -38.93830576 45.89826879 -39 49 C-46.26 49 -53.52 49 -61 49 C-61.03738281 46.50308594 -61.07476563 44.00617188 -61.11328125 41.43359375 C-61.15975839 38.9609398 -61.21089552 36.48842184 -61.26245117 34.01586914 C-61.29529407 32.32389901 -61.32344596 30.63182996 -61.34643555 28.93969727 C-61.500494 17.89010077 -62.5009361 7.78014428 -65 -3 C-57.74 -3 -50.48 -3 -43 -3 C-42.01 -0.36 -41.02 2.28 -40 5 C-39.01 4.071875 -38.02 3.14375 -37 2.1875 C-27.01799833 -6.1902514 -11.07603873 -7.18337295 0 0 Z " fill="#2E3192" transform="translate(638,30)"/>
<path d="M0 0 C3.56423217 3.56423217 5.27053865 7.33045436 7 12 C7 12.99 7 13.98 7 15 C3.41728224 15.1743959 -0.16434602 15.28087658 -3.75 15.375 C-5.27367187 15.45041016 -5.27367187 15.45041016 -6.828125 15.52734375 C-9.66924846 15.58341856 -12.21468643 15.57114094 -15 15 C-17.4453125 12.1015625 -17.4453125 12.1015625 -19 9 C-23.46393776 6.08193952 -28.13955257 5.71435057 -33.3125 6.5625 C-37.20968625 7.53679656 -39.58906935 8.6456617 -42 12 C-43.16297973 14.32595946 -43.16600691 15.78723231 -43.1875 18.375 C-43.20876953 19.53128906 -43.20876953 19.53128906 -43.23046875 20.7109375 C-42.97265174 23.27162847 -42.36206569 24.82629243 -41 27 C-35.75969697 30.76226884 -30.19804382 30.6732994 -24 30 C-20.51135194 29.00871316 -20.51135194 29.00871316 -18 27 C-17.68417969 26.1440625 -17.36835937 25.288125 -17.04296875 24.40625 C-15 22 -15 22 -12.69970703 21.59448242 C-9.72343714 21.5066708 -6.78753525 21.56580252 -3.8125 21.6875 C-2.77673828 21.71005859 -1.74097656 21.73261719 -0.67382812 21.75585938 C1.88556404 21.81483154 4.44205951 21.89707433 7 22 C6.09240802 29.0975732 3.3820331 34.22469042 -2.19921875 38.8046875 C-13.87183687 46.36087507 -28.1063064 47.90346062 -41.59375 45.30859375 C-51.78684386 42.46262479 -59.47579811 38.14945937 -65 29 C-67.16880227 22.49359318 -67.35008175 12.86560109 -64.5 6.5 C-59.24462582 -1.95269973 -51.14785175 -6.11898638 -41.7734375 -8.5859375 C-26.54248012 -10.85985508 -12.64590422 -9.11897314 0 0 Z " fill="#2E3192" transform="translate(720,35)"/>
<path d="M0 0 C1 1 1 1 1.09765625 4.59765625 C1.0909822 6.08596867 1.07902183 7.57426432 1.0625 9.0625 C1.05798828 9.82111328 1.05347656 10.57972656 1.04882812 11.36132812 C1.0370068 13.24091871 1.01907078 15.12046899 1 17 C-0.485 16.94779297 -0.485 16.94779297 -2 16.89453125 C-12.42223005 16.46936888 -12.42223005 16.46936888 -22 20 C-26.45466601 26.83102491 -26.64902094 32.98593422 -26.75 41 C-26.79447266 42.73443359 -26.79447266 42.73443359 -26.83984375 44.50390625 C-26.9100503 47.33557043 -26.95734619 50.16778679 -27 53 C-34.26 53 -41.52 53 -49 53 C-49.03738281 50.50308594 -49.07476562 48.00617188 -49.11328125 45.43359375 C-49.15975839 42.9609398 -49.21089552 40.48842184 -49.26245117 38.01586914 C-49.29529407 36.32389901 -49.32344596 34.63182996 -49.34643555 32.93969727 C-49.500494 21.89010077 -50.5009361 11.78014428 -53 1 C-45.41 1 -37.82 1 -30 1 C-29.34 4.3 -28.68 7.6 -28 11 C-27.175 9.9275 -26.35 8.855 -25.5 7.75 C-18.29666302 -0.47047484 -10.63172029 -0.87996599 0 0 Z " fill="#2E3192" transform="translate(383,26)"/>
</svg>
