<svg width="180" height="28" viewBox="0 0 180 28" fill="none" xmlns="http://www.w3.org/2000/svg">
<circle cx="13.7605" cy="13.7605" r="13.7605" fill="black"/>
<path d="M10.8937 9.74701L6.30688 18.0606H15.7672L20.9274 9.74701H10.8937Z" fill="white"/>
<path d="M40.4455 6.44661H43.1477L47.1264 17.8191L51.1052 6.44661H53.8073L48.2115 21.9361H46.0413L40.4455 6.44661ZM38.988 6.44661H41.6796L42.1689 17.5318V21.9361H38.988V6.44661ZM52.5733 6.44661H55.2754V21.9361H52.0839V17.5318L52.5733 6.44661Z" fill="black"/>
<path d="M61.467 6.44661V21.9361H58.2861V6.44661H61.467Z" fill="black"/>
<path d="M73.4352 16.7978H76.616C76.5522 17.8403 76.265 18.7659 75.7543 19.5744C75.2508 20.3829 74.5451 21.0141 73.6373 21.468C72.7366 21.9219 71.6515 22.1489 70.3819 22.1489C69.389 22.1489 68.4989 21.9787 67.7117 21.6382C66.9245 21.2907 66.2507 20.7943 65.6904 20.1489C65.1372 19.5035 64.7152 18.7233 64.4244 17.8084C64.1337 16.8935 63.9883 15.8687 63.9883 14.7339V13.6594C63.9883 12.5247 64.1372 11.4998 64.4351 10.5849C64.74 9.66295 65.1727 8.87926 65.733 8.23386C66.3003 7.58846 66.9777 7.09201 67.7649 6.74448C68.5521 6.39696 69.4316 6.2232 70.4032 6.2232C71.694 6.2232 72.7827 6.45725 73.6692 6.92534C74.5628 7.39343 75.2543 8.03882 75.7437 8.86153C76.2402 9.68423 76.538 10.6204 76.6373 11.6701H73.4458C73.4103 11.0459 73.2862 10.5176 73.0735 10.0849C72.8607 9.64522 72.538 9.31543 72.1054 9.09557C71.6798 8.86862 71.1124 8.75514 70.4032 8.75514C69.8713 8.75514 69.4068 8.85443 69.0096 9.05302C68.6124 9.2516 68.2791 9.55302 68.0096 9.95728C67.7401 10.3615 67.5379 10.8722 67.4032 11.4892C67.2755 12.0991 67.2117 12.8155 67.2117 13.6382V14.7339C67.2117 15.5353 67.272 16.241 67.3926 16.851C67.5131 17.4538 67.6975 17.9644 67.9458 18.3829C68.2011 18.7942 68.5273 19.1063 68.9245 19.3191C69.3287 19.5247 69.8146 19.6276 70.3819 19.6276C71.0486 19.6276 71.5983 19.5212 72.0309 19.3084C72.4635 19.0957 72.7933 18.7801 73.0203 18.3616C73.2543 17.9432 73.3926 17.4219 73.4352 16.7978Z" fill="black"/>
<path d="M85.3183 6.44661V21.9361H82.1374V6.44661H85.3183ZM90.0843 6.44661V8.94663H77.4458V6.44661H90.0843Z" fill="black"/>
<path d="M102.787 16.4148H98.8397V13.9254H102.787C103.396 13.9254 103.893 13.8261 104.276 13.6275C104.659 13.4219 104.939 13.1382 105.116 12.7765C105.294 12.4148 105.382 12.0069 105.382 11.553C105.382 11.092 105.294 10.663 105.116 10.2658C104.939 9.86863 104.659 9.54948 104.276 9.30834C103.893 9.0672 103.396 8.94663 102.787 8.94663H99.946V21.9361H96.7545V6.44661H102.787C103.999 6.44661 105.038 6.66647 105.904 7.10619C106.776 7.53882 107.443 8.13811 107.904 8.90408C108.365 9.67004 108.595 10.5459 108.595 11.5318C108.595 12.5318 108.365 13.397 107.904 14.1275C107.443 14.858 106.776 15.4219 105.904 15.819C105.038 16.2162 103.999 16.4148 102.787 16.4148Z" fill="black"/>
<path d="M113.84 5.59554V21.9361H110.765V5.59554H113.84Z" fill="black"/>
<path d="M122.585 19.3403V14.2126C122.585 13.8438 122.524 13.5282 122.404 13.2658C122.283 12.9963 122.095 12.7871 121.84 12.6382C121.592 12.4892 121.269 12.4148 120.872 12.4148C120.531 12.4148 120.237 12.475 119.989 12.5956C119.741 12.7091 119.549 12.8757 119.414 13.0956C119.28 13.3084 119.212 13.5602 119.212 13.8509H116.148C116.148 13.3616 116.262 12.897 116.489 12.4573C116.716 12.0176 117.046 11.6311 117.478 11.2977C117.911 10.9573 118.425 10.6913 119.021 10.4998C119.624 10.3083 120.297 10.2126 121.042 10.2126C121.936 10.2126 122.73 10.3615 123.425 10.6594C124.12 10.9573 124.666 11.4041 125.063 11.9999C125.468 12.5956 125.67 13.3403 125.67 14.2339V19.1595C125.67 19.7907 125.709 20.3084 125.787 20.7127C125.865 21.1099 125.978 21.4574 126.127 21.7553V21.9361H123.031C122.882 21.6241 122.769 21.234 122.691 20.7659C122.62 20.2907 122.585 19.8155 122.585 19.3403ZM122.989 14.9254L123.01 16.6595H121.297C120.893 16.6595 120.542 16.7056 120.244 16.7978C119.946 16.89 119.702 17.0212 119.51 17.1914C119.319 17.3545 119.177 17.546 119.085 17.7659C118.999 17.9857 118.957 18.2269 118.957 18.4893C118.957 18.7517 119.017 18.9893 119.138 19.202C119.258 19.4077 119.432 19.5708 119.659 19.6914C119.886 19.8049 120.152 19.8616 120.457 19.8616C120.918 19.8616 121.319 19.7694 121.659 19.585C121.999 19.4006 122.262 19.1737 122.446 18.9042C122.638 18.6347 122.737 18.3793 122.744 18.1382L123.553 19.4361C123.439 19.7269 123.283 20.0283 123.085 20.3404C122.893 20.6524 122.648 20.9467 122.351 21.2233C122.053 21.4928 121.694 21.7163 121.276 21.8936C120.858 22.0638 120.361 22.1489 119.787 22.1489C119.056 22.1489 118.393 22.0035 117.797 21.7127C117.209 21.4148 116.741 21.007 116.393 20.4893C116.053 19.9645 115.882 19.3687 115.882 18.702C115.882 18.0992 115.996 17.5637 116.223 17.0956C116.45 16.6276 116.783 16.2339 117.223 15.9148C117.67 15.5885 118.226 15.3439 118.893 15.1807C119.56 15.0105 120.333 14.9254 121.212 14.9254H122.989Z" fill="black"/>
<path d="M133.67 10.4254V12.5956H126.968V10.4254H133.67ZM128.627 7.58492H131.691V18.468C131.691 18.8013 131.734 19.0567 131.819 19.234C131.911 19.4113 132.046 19.5354 132.223 19.6063C132.4 19.6701 132.624 19.7021 132.893 19.7021C133.085 19.7021 133.255 19.695 133.404 19.6808C133.56 19.6595 133.691 19.6382 133.797 19.6169L133.808 21.8723C133.546 21.9574 133.262 22.0248 132.957 22.0744C132.652 22.1241 132.315 22.1489 131.946 22.1489C131.273 22.1489 130.684 22.039 130.18 21.8191C129.684 21.5921 129.301 21.2304 129.031 20.734C128.762 20.2375 128.627 19.585 128.627 18.7765V7.58492Z" fill="black"/>
<path d="M139.319 21.9361H136.234V9.40408C136.234 8.53174 136.404 7.79769 136.744 7.20194C137.092 6.59909 137.578 6.14519 138.202 5.84022C138.833 5.52816 139.581 5.37213 140.446 5.37213C140.73 5.37213 141.003 5.39341 141.266 5.43596C141.528 5.47142 141.783 5.51752 142.032 5.57426L142 7.88279C141.865 7.84733 141.723 7.82251 141.574 7.80832C141.425 7.79414 141.251 7.78705 141.053 7.78705C140.684 7.78705 140.368 7.85088 140.106 7.97854C139.851 8.09911 139.656 8.27996 139.521 8.5211C139.386 8.76223 139.319 9.05656 139.319 9.40408V21.9361ZM141.617 10.4254V12.5956H134.521V10.4254H141.617Z" fill="black"/>
<path d="M142.734 16.2978V16.0744C142.734 15.2304 142.854 14.4538 143.095 13.7446C143.337 13.0282 143.688 12.4077 144.149 11.8828C144.61 11.358 145.177 10.9502 145.851 10.6594C146.524 10.3615 147.298 10.2126 148.17 10.2126C149.042 10.2126 149.819 10.3615 150.5 10.6594C151.181 10.9502 151.751 11.358 152.212 11.8828C152.681 12.4077 153.035 13.0282 153.276 13.7446C153.517 14.4538 153.638 15.2304 153.638 16.0744V16.2978C153.638 17.1347 153.517 17.9113 153.276 18.6276C153.035 19.3368 152.681 19.9574 152.212 20.4893C151.751 21.0141 151.184 21.4219 150.51 21.7127C149.837 22.0035 149.064 22.1489 148.191 22.1489C147.319 22.1489 146.542 22.0035 145.861 21.7127C145.188 21.4219 144.617 21.0141 144.149 20.4893C143.688 19.9574 143.337 19.3368 143.095 18.6276C142.854 17.9113 142.734 17.1347 142.734 16.2978ZM145.798 16.0744V16.2978C145.798 16.78 145.84 17.2304 145.925 17.6488C146.01 18.0673 146.145 18.4361 146.329 18.7552C146.521 19.0673 146.769 19.312 147.074 19.4893C147.379 19.6666 147.751 19.7552 148.191 19.7552C148.617 19.7552 148.982 19.6666 149.287 19.4893C149.592 19.312 149.837 19.0673 150.021 18.7552C150.205 18.4361 150.34 18.0673 150.425 17.6488C150.517 17.2304 150.564 16.78 150.564 16.2978V16.0744C150.564 15.6063 150.517 15.1665 150.425 14.7552C150.34 14.3368 150.202 13.968 150.01 13.6488C149.826 13.3226 149.581 13.0672 149.276 12.8828C148.971 12.6984 148.603 12.6062 148.17 12.6062C147.737 12.6062 147.368 12.6984 147.064 12.8828C146.766 13.0672 146.521 13.3226 146.329 13.6488C146.145 13.968 146.01 14.3368 145.925 14.7552C145.84 15.1665 145.798 15.6063 145.798 16.0744Z" fill="black"/>
<path d="M158.585 12.936V21.9361H155.521V10.4254H158.404L158.585 12.936ZM162.053 10.3509L162 13.1914C161.851 13.1701 161.67 13.1523 161.457 13.1382C161.252 13.1169 161.064 13.1062 160.893 13.1062C160.461 13.1062 160.085 13.163 159.766 13.2765C159.454 13.3828 159.191 13.5424 158.979 13.7552C158.773 13.968 158.617 14.2268 158.51 14.5318C158.411 14.8368 158.354 15.1843 158.34 15.5744L157.723 15.3829C157.723 14.6382 157.798 13.9538 157.947 13.3297C158.096 12.6984 158.312 12.1488 158.596 11.6807C158.886 11.2126 159.241 10.8509 159.659 10.5956C160.078 10.3403 160.557 10.2126 161.096 10.2126C161.266 10.2126 161.44 10.2268 161.617 10.2552C161.794 10.2764 161.94 10.3083 162.053 10.3509Z" fill="black"/>
<path d="M166.564 12.8084V21.9361H163.489V10.4254H166.372L166.564 12.8084ZM166.138 15.7765H165.287C165.287 14.9751 165.383 14.2375 165.574 13.5637C165.773 12.8828 166.06 12.2942 166.436 11.7977C166.819 11.2942 167.291 10.9041 167.851 10.6275C168.411 10.3509 169.06 10.2126 169.798 10.2126C170.308 10.2126 170.776 10.2906 171.202 10.4466C171.628 10.5956 171.993 10.8332 172.298 11.1594C172.61 11.4786 172.851 11.897 173.021 12.4148C173.191 12.9254 173.277 13.5389 173.277 14.2552V21.9361H170.213V14.5956C170.213 14.0708 170.142 13.6665 170 13.3828C169.858 13.0992 169.656 12.9006 169.394 12.7871C169.138 12.6736 168.83 12.6169 168.468 12.6169C168.071 12.6169 167.723 12.6984 167.425 12.8616C167.135 13.0247 166.893 13.2516 166.702 13.5424C166.51 13.8261 166.369 14.1594 166.276 14.5424C166.184 14.9254 166.138 15.3368 166.138 15.7765ZM172.989 15.4254L171.894 15.5637C171.894 14.8119 171.986 14.1133 172.17 13.468C172.362 12.8226 172.642 12.2552 173.011 11.7658C173.386 11.2764 173.851 10.897 174.404 10.6275C174.957 10.3509 175.596 10.2126 176.319 10.2126C176.872 10.2126 177.376 10.2942 177.83 10.4573C178.284 10.6133 178.67 10.8651 178.989 11.2126C179.316 11.553 179.564 11.9999 179.734 12.5531C179.911 13.1062 180 13.7836 180 14.585V21.9361H176.925V14.585C176.925 14.0531 176.855 13.6488 176.713 13.3722C176.578 13.0885 176.379 12.8935 176.117 12.7871C175.862 12.6736 175.557 12.6169 175.202 12.6169C174.833 12.6169 174.511 12.6913 174.234 12.8403C173.957 12.9821 173.727 13.1807 173.542 13.436C173.358 13.6914 173.22 13.9892 173.128 14.3297C173.035 14.663 172.989 15.0283 172.989 15.4254Z" fill="black"/>
</svg>
